# xmcd
#
# Track frame offsets: 
#        150
#        18569
#        44663
#        63151
#        81033
#        101541
#        121935
#        139460
#        156656
#        176028
#        194373
#        213624
#        230615
#
# Disc length: 3362 seconds
#
# Revision: 0
# Processed by: cddbd v1.5.2PL0 Copyright (c) Steve Scherf et al.
# Submitted via: ExactAudioCopyFreeDBPlugin 1.0
#
DISCID=c10d200d
DTITLE=群星 - 试音宝典第二季女声
DYEAR=1900
DGENRE=A Cappella
TTITLE0=刘紫玲 - 落花流水春已去
TTITLE1=小月 - 相逢是一首歌
TTITLE2=刘紫玲 - 粉红色脸的心事
TTITLE3=菲尔 - 火苗
TTITLE4=甘雅丹 - 爱情海
TTITLE5=孙露 - 爱走了心碎了
TTITLE6=孙露 - 车站
TTITLE7=孟蕾 - 和寂寞说分手
TTITLE8=雷婷 - 不是因为寂寞才想你
TTITLE9=徐美楠 - 心在跳情在烧
TTITLE10=小月 - 爱上你是一个错
TTITLE11=甘雅丹 - 陪你一起看草原
TTITLE12=甘雅丹 - 想和你一起飞
EXTD=
EXTT0=
EXTT1=
EXTT2=
EXTT3=
EXTT4=
EXTT5=
EXTT6=
EXTT7=
EXTT8=
EXTT9=
EXTT10=
EXTT11=
EXTT12=
PLAYORDER=
